<?xml version="1.0" encoding="UTF-8"?><svg width="508" height="508" version="1.1" viewBox="0 0 508 508" xmlns="http://www.w3.org/2000/svg" xmlns:xlink="http://www.w3.org/1999/xlink"><!--Generated by IJSVG (https://github.com/iconjar/IJSVG)--><g transform="scale(0.999292)"><path fill="#24292E" fill-rule="evenodd" d="M485,29.72c11.45,15.13 16.61,40.21 19.15,70.7c3.36,45.5 4.71,100.1 6,156.52c-1.67,57.47 -2.35,115.43 -6,156.52c-2.88,31.54 -9,52.66 -19.22,65.47c-13,12.79 -37.94,23.59 -73.5,26.15c-43.25,3.69 -96.61,3.65 -155.48,5.1c-65.44,-1.12 -109.82,-0.64 -156.38,-5.08c-36.32,-2.52 -60.08,-13.19 -74.7,-26.07c-10.83,-14.54 -14,-30 -17,-66.24c-3.75,-41.85 -4.58,-98.56 -6,-155.54c2.13,-56.68 2.26,-113.81 6.03,-156.51c2.53,-33.69 6.52,-56.34 16.75,-70.74c14.35,-12.23 38.83,-18.31 75.35,-21.31c50,-5.85 102.06,-7 155.88,-6.87c55.39,0.09 108.56,1.67 156,6.34c32,2.56 58.48,8.07 73.07,21.56Z" transform="matrix(1,0,0,1,-1.83,-1.82)"></path><path fill="#FFF" d="M249.83,102.87l6.65345e-07,-2.09894e-10c-82.7599,0.0261084 -149.829,67.1374 -149.803,149.897c0.0203387,64.4708 41.2748,121.702 102.433,142.103c7.49,1.39 10.24,-3.25 10.24,-7.21c0,-3.57 -0.14,-15.38 -0.2,-27.9c-41.69,9.06999 -50.5,-17.67 -50.5,-17.67c-6.82,-17.32 -16.64,-21.92 -16.64,-21.92c-13.6,-9.3 1,-9.11 1,-9.11c15,1.06 23,15.44 23,15.44c13.36,22.9 35.05,16.28 43.6,12.45c1.34,-9.68 5.23,-16.29 9.51,-20c-33.28,-3.79 -68.27,-16.64 -68.27,-74l-6.21183e-07,-4.44627e-05c-0.208045,-14.8918 5.3204,-29.2929 15.44,-40.22c-1.56,-3.78 -6.68,-19 1.45,-39.65c0,0 12.58,-4 41.21,15.36l-2.13414e-08,5.83938e-09c24.5488,-6.71701 50.4512,-6.71701 75,-1.16788e-08c28.7,-19.44 41.23,-15.44 41.23,-15.44c8.16,20.64 3,35.88 1.47,39.65l2.30032e-06,2.48188e-06c10.1239,10.923 15.6469,25.3286 15.42,40.22c0,57.55 -35.05,70.22 -68.42,73.93c5.37,4.65 10.16,13.77 10.16,27.75c0,20 -0.17,36.18 -0.17,41.12c0,4 2.7,8.66 10.29,7.19l-1.18329e-05,3.94713e-06c78.5073,-26.1878 120.921,-111.06 94.7327,-189.567c-20.4099,-61.1859 -77.6825,-102.447 -142.183,-102.433Z" transform="matrix(1,0,0,1,-1.83,-1.82)"></path><path fill="#FFF" d="M156.75,318c-0.33,0.75 -1.5,1 -2.57,0.46c-1.07,-0.54 -1.7,-1.5 -1.34,-2.25c0.36,-0.75 1.49,-1 2.58,-0.47c1.09,0.53 1.71,1.51 1.33,2.26Z" transform="matrix(1,0,0,1,-1.83,-1.82)"></path><path fill="#FFF" d="M162.82,324.76c-0.71,0.66 -2.11,0.35 -3.06,-0.69c-0.95,-1.04 -1.16,-2.44 -0.44,-3.11c0.72,-0.67 2.09,-0.35 3.07,0.69c0.98,1.04 1.17,2.44 0.43,3.11Z" transform="matrix(1,0,0,1,-1.83,-1.82)"></path><path fill="#FFF" d="M168.73,333.39c-0.92,0.64 -2.42,0 -3.35,-1.29c-0.93,-1.29 -0.92,-2.93 0,-3.57c0.92,-0.64 2.41,-0.06 3.35,1.26c0.94,1.32 0.92,3 0,3.61Z" transform="matrix(1,0,0,1,-1.83,-1.82)"></path><path fill="#FFF" d="M176.82,341.73c-0.82,0.91 -2.57,0.66 -3.85,-0.57c-1.28,-1.23 -1.67,-2.92 -0.85,-3.83c0.82,-0.91 2.59,-0.65 3.88,0.57c1.29,1.22 1.7,2.93 0.82,3.83Z" transform="matrix(1,0,0,1,-1.83,-1.82)"></path><path fill="#FFF" d="M188,346.57c-0.36,1.17 -2,1.71 -3.74,1.21c-1.74,-0.5 -2.8,-1.89 -2.46,-3.07c0.34,-1.18 2,-1.74 3.75,-1.2c1.75,0.54 2.8,1.88 2.45,3.07Z" transform="matrix(1,0,0,1,-1.83,-1.82)"></path><path fill="#FFF" d="M200.25,347.47c0,1.24 -1.4,2.26 -3.18,2.28c-1.78,0.02 -3.24,-1 -3.26,-2.18c-0.02,-1.18 1.41,-2.26 3.2,-2.29c1.79,-0.03 3.24,1 3.24,2.19Z" transform="matrix(1,0,0,1,-1.83,-1.82)"></path><path fill="#FFF" d="M211.66,345.52c0.21,1.2 -1,2.44 -2.79,2.77c-1.79,0.33 -3.35,-0.43 -3.57,-1.62c-0.22,-1.19 1,-2.47 2.78,-2.79c1.78,-0.32 3.36,0.42 3.58,1.64Z" transform="matrix(1,0,0,1,-1.83,-1.82)"></path></g></svg>