<?xml version="1.0" encoding="UTF-8"?><svg width="508" height="508" version="1.1" viewBox="0 0 508 508" xmlns="http://www.w3.org/2000/svg" xmlns:xlink="http://www.w3.org/1999/xlink"><!--Generated by IJSVG (https://github.com/iconjar/IJSVG)--><g transform="scale(0.999292)"><path fill="#0077B5" fill-rule="evenodd" d="M485,29.72c11.45,15.13 16.61,40.21 19.15,70.7c3.36,45.5 4.71,100.1 6,156.52c-1.67,57.47 -2.35,115.43 -6,156.52c-2.88,31.54 -9,52.66 -19.22,65.47c-13,12.79 -37.94,23.59 -73.5,26.15c-43.25,3.69 -96.61,3.65 -155.48,5.1c-65.44,-1.12 -109.82,-0.64 -156.38,-5.08c-36.32,-2.52 -60.08,-13.19 -74.7,-26.07c-10.83,-14.54 -14,-30 -17,-66.24c-3.75,-41.85 -4.58,-98.56 -6,-155.54c2.13,-56.68 2.26,-113.81 6.03,-156.51c2.53,-33.69 6.52,-56.34 16.75,-70.74c14.35,-12.23 38.83,-18.31 75.35,-21.31c50,-5.85 102.06,-7 155.88,-6.87c55.39,0.09 108.56,1.67 156,6.34c32,2.56 58.48,8.07 73.07,21.56Z" transform="matrix(1,0,0,1,-1.83,-1.82)"></path><path fill="#FFF" d="M400.76,392.14v-110.75c0,-59.34 -31.68,-87 -73.91,-87c-34.08,0 -49.36,18.75 -57.87,31.91v-27.3h-64.2c0.85,18.13 0,193.17 0,193.17h64.22v-107.91c0,-5.76 0.41,-11.53 2.12,-15.65c4.63,-11.54 15.2,-23.48 32.93,-23.48c23.24,0 32.53,17.71 32.53,43.67v103.35h64.2Zm-263.63,-219.54c22.38,0 36.34,-14.85 36.34,-33.39c-0.41,-18.95 -13.95,-33.36 -35.91,-33.36c-21.96,0 -36.33,14.41 -36.33,33.36c0,18.54 13.94,33.39 35.49,33.39Zm32.11,219.54v-193.14h-64.24v193.14Z" transform="matrix(1,0,0,1,-1.83,-1.82)"></path></g></svg>