<?xml version="1.0" encoding="UTF-8"?><svg version="1.1" viewBox="0 0 38 48" xmlns="http://www.w3.org/2000/svg" xmlns:xlink="http://www.w3.org/1999/xlink"><!--Generated by IJSVG (https://github.com/iconjar/IJSVG)--><g transform="matrix(1,0,0,1,-807,-952)"><g transform="matrix(1,0,0,1,807,952)"><path fill="#000" fill-rule="evenodd" stroke="none" d="M25.086,41.5923l-19.1114,0.0088572l-0.00164541,-4.04727l19.1106,-0.0097895l0.0024681,4.0482v0Zm12.914,-22.9215l-3.26931,-18.6708l-4.02197,0.692026l3.26884,18.6708l4.02244,-0.692026v0Zm-12.4544,13.6839l-19.0299,-1.73869l-0.374683,4.03107l19.0302,1.73706l0.37433,-4.02944v0Zm1.25545,-5.28156l-18.455,-4.91923l-1.06035,3.90823l18.4563,4.91982l1.05906,-3.90882v0Zm2.40935,-4.62951l-16.4609,-9.62718l-2.07462,3.48507l16.4617,9.62776l2.0738,-3.48565v0Zm4.0363,-2.83477l-10.7674,-15.6572l-3.37262,2.28014l10.7679,15.6565l3.37215,-2.27944v0Z"></path><path fill="#000" fill-rule="evenodd" stroke="none" d="M28.3316,28.2784v16.5459h-25.0667v-16.5459h-3.26484v19.7216h31.58v-19.7216Z"></path></g></g></svg>