<?xml version="1.0" encoding="UTF-8"?>
<svg width="20px" height="20px" viewBox="0 0 20 20" version="1.1" xmlns="http://www.w3.org/2000/svg" xmlns:xlink="http://www.w3.org/1999/xlink">
    <title>TimelyLogo</title>
    <defs>
        <path d="M5.69652573,-5.32424503e-16 L14.3034743,-5.32424503e-16 C16.2842804,-5.32424503e-16 17.0025685,0.206243042 17.7267216,0.59352436 C18.4508747,0.98080568 19.0191943,1.54912527 19.4064756,2.27327838 C19.793757,2.99743148 20,3.71571963 20,5.69652573 L20,14.3034743 C20,16.2842804 19.793757,17.0025685 19.4064756,17.7267216 C19.0191943,18.4508747 18.4508747,19.0191943 17.7267216,19.4064756 C17.0025685,19.793757 16.2842804,20 14.3034743,20 L5.69652573,20 C3.71571963,20 2.99743148,19.793757 2.27327838,19.4064756 C1.54912527,19.0191943 0.98080568,18.4508747 0.59352436,17.7267216 C0.206243042,17.0025685 -4.5570902e-16,16.2842804 -4.5570902e-16,14.3034743 L-4.5570902e-16,5.69652573 C-4.5570902e-16,3.71571963 0.206243042,2.99743148 0.59352436,2.27327838 C0.98080568,1.54912527 1.54912527,0.98080568 2.27327838,0.59352436 C2.99743148,0.206243042 3.71571963,-5.32424503e-16 5.69652573,-5.32424503e-16 Z" id="path-1"></path>
        <filter x="-11.8%" y="-9.2%" width="123.7%" height="118.3%" filterUnits="objectBoundingBox" id="filter-3">
            <feOffset dx="0" dy="-0" in="SourceAlpha" result="shadowOffsetOuter1"></feOffset>
            <feGaussianBlur stdDeviation="0.5" in="shadowOffsetOuter1" result="shadowBlurOuter1"></feGaussianBlur>
            <feColorMatrix values="0 0 0 0 1   0 0 0 0 1   0 0 0 0 1  0 0 0 1 0" type="matrix" in="shadowBlurOuter1" result="shadowMatrixOuter1"></feColorMatrix>
            <feMerge>
                <feMergeNode in="shadowMatrixOuter1"></feMergeNode>
                <feMergeNode in="SourceGraphic"></feMergeNode>
            </feMerge>
        </filter>
        <linearGradient x1="23.8144184%" y1="73.6363033%" x2="61.7474032%" y2="27.2245375%" id="linearGradient-4">
            <stop stop-color="#000000" stop-opacity="0" offset="0%"></stop>
            <stop stop-color="#000000" offset="100%"></stop>
        </linearGradient>
        <path d="M1.77466274,12.1119142 L8.47192294,9.59839826 L8.47192294,9.59839826 C10.5871282,10.5316642 11.6874894,11.2158335 11.7730066,11.6509062 C11.8585238,12.0859789 11.5875381,12.5330884 10.9600497,12.9922348 L2.54716393,16.2281846 C1.76382331,16.5294903 0.884543691,16.1387238 0.583237939,15.3553832 C0.516273431,15.1812876 0.481932648,14.9963511 0.481932648,14.8098209 L0.481932648,13.9778573 C0.481932648,13.1472694 0.997037128,12.4037611 1.77466274,12.1119142 Z" id="path-5"></path>
        <linearGradient x1="76.758495%" y1="22.7481556%" x2="28.499244%" y2="73.8002916%" id="linearGradient-6">
            <stop stop-color="#000000" stop-opacity="0" offset="0%"></stop>
            <stop stop-color="#000000" offset="100%"></stop>
        </linearGradient>
        <path d="M1.17573011,4.3254837 L1.70929983,3.31067563 L10.2035949,0.102473719 C10.9938681,-0.196003793 11.876475,0.2026754 12.1749525,0.992948621 C12.2401856,1.16566519 12.2736107,1.348765 12.2736107,1.53338997 L12.2736107,2.36535357 C12.2736107,3.19594142 11.7585063,3.93944979 10.9808806,4.23129665 L3.04700505,7.20892066 C2.06554609,7.57726722 0.971312514,7.08024141 0.602965955,6.09878244 C0.522930683,5.88552856 0.481932648,5.6596101 0.481932648,5.431832 L0.481932648,5.17773376 L0.481932648,5.17773376 L1.17573011,4.3254837 Z" id="path-7"></path>
    </defs>
    <g id="Page-1" stroke="none" stroke-width="1" fill="none" fill-rule="evenodd">
        <g id="TimelyLogo">
            <g id="Mask" fill="#000000" fill-rule="nonzero">
                <path d="M5.69652573,-5.32424503e-16 L14.3034743,-5.32424503e-16 C16.2842804,-5.32424503e-16 17.0025685,0.206243042 17.7267216,0.59352436 C18.4508747,0.98080568 19.0191943,1.54912527 19.4064756,2.27327838 C19.793757,2.99743148 20,3.71571963 20,5.69652573 L20,14.3034743 C20,16.2842804 19.793757,17.0025685 19.4064756,17.7267216 C19.0191943,18.4508747 18.4508747,19.0191943 17.7267216,19.4064756 C17.0025685,19.793757 16.2842804,20 14.3034743,20 L5.69652573,20 C3.71571963,20 2.99743148,19.793757 2.27327838,19.4064756 C1.54912527,19.0191943 0.98080568,18.4508747 0.59352436,17.7267216 C0.206243042,17.0025685 -4.5570902e-16,16.2842804 -4.5570902e-16,14.3034743 L-4.5570902e-16,5.69652573 C-4.5570902e-16,3.71571963 0.206243042,2.99743148 0.59352436,2.27327838 C0.98080568,1.54912527 1.54912527,0.98080568 2.27327838,0.59352436 C2.99743148,0.206243042 3.71571963,-5.32424503e-16 5.69652573,-5.32424503e-16 Z" id="path-1"></path>
            </g>
            <g id="Icon-Clipped">
                <mask id="mask-2" fill="white">
                    <use xlink:href="#path-1"></use>
                </mask>
                <g id="path-1"></g>
                <g id="Icon" mask="url(#mask-2)">
                    <rect id="Background" fill="#FFFFFF" fill-rule="nonzero" x="0" y="0" width="20" height="20"></rect>
                    <g id="Group-3" transform="translate(9.4953, 10.1667) rotate(9) translate(-9.4953, -10.1667)translate(3.162, 2)">
                        <g id="Group" filter="url(#filter-3)" transform="translate(0, -0)">
                            <g id="Rectangle-2">
                                <use fill="#FF7900" xlink:href="#path-5"></use>
                                <use fill-opacity="0.600000024" fill="url(#linearGradient-4)" style="mix-blend-mode: overlay;" xlink:href="#path-5"></use>
                            </g>
                            <g id="Rectangle-2">
                                <use fill="#FF7900" xlink:href="#path-7"></use>
                                <use fill-opacity="0.600000024" fill="url(#linearGradient-6)" style="mix-blend-mode: overlay;" xlink:href="#path-7"></use>
                            </g>
                            <path d="M3.67780467,4.94555554 C2.11630358,4.29281312 1.46003134,3.74810125 1.70898796,3.31141994 C0.239183641,4.06810087 -0.282548725,5.33742468 0.14379086,7.11939135 C0.295867656,7.75502179 0.68400493,8.18568114 1.36498797,8.5030206 L6.73600827,10.5187919 C6.7816312,10.5359144 6.82677023,10.5501519 6.87141111,10.5616325 L8.98886199,11.3563225 C10.5503631,12.0090649 11.2066353,12.5537768 10.9576787,12.9904581 C12.427483,12.2337772 12.9492154,10.9644534 12.5228758,9.18248672 C12.370799,8.54685627 11.9146699,8.05178327 11.3016787,7.79885747 L8.20560564,6.63688545 C8.14123999,6.61272869 8.07780383,6.59162427 8.01531208,6.57344415 L3.67780467,4.94555554 Z" id="Combined-Shape" fill="#FF7900"></path>
                        </g>
                    </g>
                </g>
            </g>
        </g>
    </g>
</svg>