<?xml version="1.0" encoding="UTF-8"?><svg width="508" height="508" version="1.1" viewBox="0 0 508 508" xmlns="http://www.w3.org/2000/svg" xmlns:xlink="http://www.w3.org/1999/xlink"><!--Generated by IJSVG (https://github.com/iconjar/IJSVG)--><g transform="scale(0.999292)"><path fill="#F48024" fill-rule="evenodd" d="M485,29.72c11.45,15.13 16.61,40.21 19.15,70.7c3.36,45.5 4.71,100.1 6,156.52c-1.67,57.47 -2.35,115.43 -6,156.52c-2.88,31.54 -9,52.66 -19.22,65.47c-13,12.79 -37.94,23.59 -73.5,26.15c-43.25,3.69 -96.61,3.65 -155.48,5.1c-65.44,-1.12 -109.82,-0.64 -156.38,-5.08c-36.32,-2.52 -60.08,-13.19 -74.7,-26.07c-10.83,-14.54 -14,-30 -17,-66.24c-3.75,-41.85 -4.58,-98.56 -6,-155.54c2.13,-56.68 2.26,-113.81 6.03,-156.51c2.53,-33.69 6.52,-56.34 16.75,-70.74c14.35,-12.23 38.83,-18.31 75.35,-21.31c50,-5.85 102.06,-7 155.88,-6.87c55.39,0.09 108.56,1.67 156,6.34c32,2.56 58.48,8.07 73.07,21.56Z" transform="matrix(1,0,0,1,-1.83,-1.82)"></path><g transform="matrix(1,0,0,1,-67.32,327.23)"><path fill="#FFF" d="M242.72,162.94h25.16v117.82h-25.16Z" transform="matrix(0.507989,-0.861363,0.861363,0.507989,0,0)"></path></g><g transform="matrix(1,0,0,1,-83.05,425.06)"><path fill="#FFF" d="M225.21,207.5h25.16v117.82h-25.16Z" transform="matrix(0.259662,-0.9657,0.9657,0.259662,0,0)"></path></g><g transform="matrix(1,0,0,1,-100.13,509.59)"><path fill="#FFF" d="M218.64,250.68h25.16v117.82h-25.16Z" transform="matrix(0.0918492,-0.995773,0.995773,0.0918492,0,0)"></path></g><path fill="#FFF" d="M167.9,332.79h117.83v25.17h-117.83Z"></path><path fill="#FFF" d="M327.7,393.71l2.46658e-06,0.000149521c0.0323653,1.96211 -0.0343905,3.92459 -0.200012,5.87997v0.1h-188.5c0,0 -5.88,0 -5.88,-0.1h-0.2v-122.59h20.08v102.84h154.57v-102.84h20.13Z" transform="matrix(1,0,0,1,-1.83,-1.82)"></path><g transform="matrix(1,0,0,1,-52.51,195.29)"><path fill="#FFF" d="M281.54,121.77h25.17v117.83h-25.17Z" transform="matrix(0.826197,-0.563382,0.563382,0.826197,0,0)"></path></g><g transform="matrix(1,0,0,1,-24.23,59.48)"><path fill="#FFF" d="M332.04,101.74h25.17v117.82h-25.17Z" transform="matrix(0.985259,-0.171069,0.171069,0.985259,0,0)"></path></g></g></svg>