<?xml version="1.0" encoding="UTF-8"?><svg width="508" height="508" version="1.1" viewBox="0 0 508 508" xmlns="http://www.w3.org/2000/svg" xmlns:xlink="http://www.w3.org/1999/xlink"><!--Generated by IJSVG (https://github.com/iconjar/IJSVG)--><g transform="scale(0.999292)"><path fill="#1DA1F2" fill-rule="evenodd" d="M485,29.72c11.45,15.13 16.61,40.21 19.15,70.7c3.36,45.5 4.71,100.1 6,156.52c-1.67,57.47 -2.35,115.43 -6,156.52c-2.88,31.54 -9,52.66 -19.22,65.47c-13,12.79 -37.94,23.59 -73.5,26.15c-43.25,3.69 -96.61,3.65 -155.48,5.1c-65.44,-1.12 -109.82,-0.64 -156.38,-5.08c-36.32,-2.52 -60.08,-13.19 -74.7,-26.07c-10.83,-14.54 -14,-30 -17,-66.24c-3.75,-41.85 -4.58,-98.56 -6,-155.54c2.13,-56.68 2.26,-113.81 6.03,-156.51c2.53,-33.69 6.52,-56.34 16.75,-70.74c14.35,-12.23 38.83,-18.31 75.35,-21.31c50,-5.85 102.06,-7 155.88,-6.87c55.39,0.09 108.56,1.67 156,6.34c32,2.56 58.48,8.07 73.07,21.56Z" transform="matrix(1,0,0,1,-1.83,-1.82)"></path><path fill="#FFF" d="M400.43,158.33l2.46843e-06,-1.09269e-06c-11.2577,4.9834 -23.2016,8.24328 -35.43,9.67l1.67914e-06,-1.00388e-06c12.8754,-7.69762 22.5085,-19.8189 27.1,-34.1l1.06033e-06,-6.30799e-07c-12.0956,7.19579 -25.3333,12.269 -39.14,15l3.77575e-07,4.00743e-07c-23.3639,-24.7976 -62.4066,-25.9598 -87.2042,-2.59586c-15.969,15.0457 -22.745,37.4409 -17.7958,58.8159l-4.97654e-06,-2.50558e-07c-49.548,-2.49463 -95.7088,-25.9022 -127,-64.4l6.8281e-07,-1.17554e-06c-16.3537,28.1548 -8.01933,64.1712 19.04,82.28l-2.26121e-06,-7.13725e-08c-9.788,-0.308948 -19.3605,-2.95235 -27.92,-7.71c0,0.26 0,0.52 0,0.78l-1.91046e-06,-0.0153424c4.43093e-06,29.3447 20.6743,54.6266 49.435,60.4523l4.00631e-06,-1.08611e-06c-5.29395,1.43519 -10.7549,2.16153 -16.24,2.16l-2.87227e-06,4.39229e-10c-3.89321,0.000595279 -7.77755,-0.371097 -11.6,-1.11l-3.50713e-06,-1.09057e-05c8.07382,25.1063 31.2121,42.3053 57.58,42.8l1.10599e-06,-8.64657e-07c-25.8586,20.2162 -58.6604,29.3905 -91.255,25.523l1.21928e-05,7.8361e-06c28.1808,18.1114 60.9811,27.7244 94.48,27.69c113.38,0 175.37,-93.92 175.37,-175.37c0,-2.66667 -0.0566667,-5.33333 -0.17,-8l-3.75312e-06,2.70763e-06c12.0674,-8.70585 22.4812,-19.499 30.75,-31.87Z" transform="matrix(1,0,0,1,-1.83,-1.82)"></path></g></svg>